inDegrees=no
DataType=double
version=3
OpenSimVersion=4.4-2022-10-11-798caa840
endheader
time	elv_angle	shoulder_elv	shoulder_rot	elbow_flexion	pro_sup	deviation	flexion
2.4020851434	0.4805960537	0.7316611935	0.4126963476	1.3973312589	-0.0682476510	-0.0346652092	0.2250113161
2.4062554301	0.4805960537	0.7316611935	0.4126963476	1.3973312589	-0.0682476510	-0.0346652092	0.2250113161
2.4104257168	0.4805960537	0.7316611935	0.4126963476	1.3973312589	-0.0682476510	-0.0346652092	0.2250113161
2.4145960035	0.4805960537	0.7316611935	0.4126963476	1.3973312589	-0.0682476510	-0.0346652092	0.2250113161
2.4187662902	0.4805960537	0.7316611935	0.4126963476	1.3973312589	-0.0682476510	-0.0346652092	0.2250113161
2.4229365769	0.4805960537	0.7316611935	0.4126963476	1.3973312589	-0.0682476510	-0.0346652092	0.2250113161
2.4271068636	0.4805960537	0.7316611935	0.4126963476	1.3973312589	-0.0682476510	-0.0346652092	0.2250113161
2.4312771503	0.4805960537	0.7316611935	0.4126963476	1.3973312589	-0.0682476510	-0.0346652092	0.2250113161
2.4354474370	0.4805960537	0.7316611935	0.4126963476	1.3973312589	-0.0682476510	-0.0346652092	0.2250113161
2.4396177237	0.4805960537	0.7316611935	0.4126963476	1.3973312589	-0.0682476510	-0.0346652092	0.2250113161
2.4437880104	0.4805960537	0.7316611935	0.4126963476	1.3973312589	-0.0682476510	-0.0346652092	0.2250113161
2.4479582971	0.4805960537	0.7316611935	0.4126963476	1.3973312589	-0.0682476510	-0.0346652092	0.2250113161
2.4521285838	0.4805960537	0.7316611935	0.4126963476	1.3973312589	-0.0682476510	-0.0346652092	0.2250113161
2.4562988705	0.4798748360	0.7212720647	0.4195552046	1.4051717891	-0.0615474729	-0.0312469601	0.2224400359
2.4604691573	0.4782383975	0.7135543761	0.4225849533	1.4120810536	-0.0548434492	-0.0257645882	0.2207216956
2.4646394440	0.4768158959	0.7060283664	0.4227812246	1.4209190056	-0.0474497713	-0.0218537250	0.2161224332
2.4688097307	0.4764595184	0.6970834743	0.4218054717	1.4328664719	-0.0397473371	-0.0209756700	0.2091058516
2.4729800174	0.4772034917	0.6876514604	0.4228494720	1.4443374198	-0.0347878793	-0.0187098033	0.2105055970
2.4771503041	0.4789309253	0.6788259490	0.4241502787	1.4531924047	-0.0303539470	-0.0160446918	0.2087505087
2.4813205908	0.4810692807	0.6706510040	0.4233538516	1.4594529326	-0.0233538139	-0.0157594810	0.1948000534
2.4854908775	0.4822464960	0.6617972179	0.4239125466	1.4646666206	-0.0171353599	-0.0153004556	0.1962663165
2.4896611642	0.4827312755	0.6548514292	0.4242790592	1.4722593076	-0.0141089699	-0.0145704445	0.2022208649
2.4938314509	0.4835629530	0.6497657674	0.4224985549	1.4825356959	-0.0142118700	-0.0141174543	0.1960239841
2.4980017376	0.4853243944	0.6408412632	0.4205764438	1.4901561862	-0.0143390579	-0.0131982529	0.1877863567
2.5021720243	0.4871045861	0.6355764793	0.4188507515	1.4955455693	-0.0085957675	-0.0131047025	0.1832032902
2.5063423110	0.4886531373	0.6366313387	0.4178154503	1.5002425300	0.0019560238	-0.0135567884	0.1824071154
2.5105125977	0.4908150810	0.6356898164	0.4185786296	1.5038351810	0.0081542518	-0.0123428863	0.1817902553
2.5146828844	0.4924755810	0.6328697245	0.4196647478	1.5048077270	0.0096451423	-0.0121020876	0.1774366453
2.5188531712	0.4936402582	0.6300511224	0.4201058265	1.5046684746	0.0100384385	-0.0127074882	0.1690061475
2.5230234579	0.4952827318	0.6277903099	0.4202211237	1.5066236532	0.0122514114	-0.0115395707	0.1593686205
2.5271937446	0.4962312801	0.6251014460	0.4204415191	1.5090049614	0.0129714035	-0.0110259342	0.1503738724
2.5313640313	0.4970462404	0.6218305733	0.4199677989	1.5118375678	0.0112589144	-0.0110747942	0.1430048774
2.5355343180	0.4987790985	0.6186701485	0.4184627617	1.5154750892	0.0095000068	-0.0096814401	0.1364893548
2.5397046047	0.4998943517	0.6162232362	0.4186631408	1.5165928300	0.0109344313	-0.0068849860	0.1273875040
2.5438748914	0.5010467956	0.6144901949	0.4200991940	1.5169761013	0.0135496964	-0.0039152946	0.1169267267
2.5480451781	0.5031547060	0.6133040724	0.4208616926	1.5191852275	0.0145358609	-0.0015971692	0.1070835161
2.5522154648	0.5050319181	0.6127203494	0.4205449176	1.5212833429	0.0151685781	0.0007178662	0.0961816029
2.5563857515	0.5065028611	0.6121838756	0.4206291434	1.5218596973	0.0158855778	0.0023509320	0.0848007608
2.5605560382	0.5076035416	0.6111879186	0.4218659090	1.5216202670	0.0161453093	0.0030574103	0.0744169652
2.5647263249	0.5081339056	0.6098047865	0.4230441662	1.5228683167	0.0152352036	0.0038936658	0.0655801554
2.5688966116	0.5089997044	0.6087083214	0.4235527242	1.5240579678	0.0145314438	0.0048229677	0.0560421603
2.5730668983	0.5103587136	0.6080271491	0.4236033922	1.5232620000	0.0143311290	0.0061773187	0.0450487725
2.5772371851	0.5115309155	0.6073495104	0.4237899614	1.5204210833	0.0135589968	0.0084429679	0.0348343826
2.5814074718	0.5131243723	0.6071489525	0.4238067022	1.5186253683	0.0130751457	0.0097451841	0.0289059790
2.5855777585	0.5146642103	0.6075340370	0.4235771970	1.5183480491	0.0131990092	0.0097886251	0.0260976765
2.5897480452	0.5152399113	0.6080099907	0.4233142109	1.5181929521	0.0131201319	0.0097764503	0.0228799250
2.5939183319	0.5158296046	0.6078552055	0.4229897810	1.5191028874	0.0115055807	0.0100965140	0.0202556476
